<svg xmlns="http://www.w3.org/2000/svg" width="593.145" height="223.318" viewBox="9.273 284.495 593.145 223.318"><path fill="#0033A0" d="M181.9 421.964l.464 7.882c0 1.236-.773 2.318-2.01 2.473-3.4.617-8.035 1.39-10.817 1.39-14.527 0-19.01-5.563-19.01-23.8v-27.818h-5.562a2.442 2.442 0 0 1-2.473-2.473v-8.192c0-1.39 1.082-2.318 2.473-2.318h5.563v-9.736c0-1.082.772-2.01 1.854-2.318l9.582-2.318c.773-.154 1.39 0 2.01.464.617.463.926 1.082.926 1.854v12.21h14.682c1.39 0 2.318 1.08 2.318 2.317v8.19c0 1.39-1.082 2.473-2.318 2.473H164.9v25.81c0 8.963.31 12.054 6.646 12.054 2.318 0 5.873-.155 7.882-.31 1.236-.154 2.318.772 2.472 2.164m-45.59-21.637c0 23.027-8.81 33.228-28.283 33.228-19.627 0-28.437-10.2-28.437-33.228 0-22.718 8.81-32.764 28.437-32.764 19.318 0 28.282 10.355 28.282 32.764m-14.683 0c0-14.063-3.864-19.627-13.6-19.627-10.2 0-13.754 5.1-13.754 19.627 0 13.137 2.164 20.245 13.754 20.245 11.437 0 13.6-7.418 13.6-20.245m230.118-30.29c-.463-.62-1.08-.928-1.854-.928h-9.426c-1.082 0-2.01.772-2.318 1.7l-12.52 47.29h-.926l-12.52-47.29c-.308-1.083-1.235-1.7-2.317-1.7h-9.272c-.77 0-1.39.308-1.853.926s-.618 1.39-.464 2.01l13.755 53.008c.618 2.627 3.09 7.11 7.882 7.11h2.627c-.154.926-.464 1.853-.772 2.626l-.154.464c-.772 2.473-1.853 6.182-8.654 6.182l-11.9-.772c-.617 0-1.39.154-1.853.618a2.554 2.554 0 0 0-.773 1.854l.31 6.336c0 1.082.77 2.01 1.853 2.164 3.555.927 10.2 1.854 15.764 2.163h.772c8.963 0 15.145-5.873 18.235-17.31a6334.122 6334.122 0 0 0 11.282-43.428c1.545-5.718 2.78-10.664 3.71-14.063l1.853-6.956c.153-.617 0-1.39-.465-2.008M70.782 428.918c.31.773.31 1.546-.154 2.318-.464.618-1.236 1.082-2.01 1.082H57.492c-.926 0-1.853-.618-2.163-1.39l-14.373-32.302c-7.11 0-13.29-.463-16.69-.618V430c0 1.39-1.083 2.473-2.32 2.473h-10.2A2.441 2.441 0 0 1 9.274 430v-81.136c0-1.236.927-2.318 2.164-2.318C24.264 345.154 34.618 345 38.326 345h2.01c24.573 0 29.827 14.527 29.827 26.736 0 10.2-4.79 17.464-14.836 22.563l15.455 34.618zm-30.446-70.01h-5.254c-5.873 0-9.273.464-10.973.773v24.883c2.78.155 8.19.464 15.454.464 9.427-.155 15.3-5.1 15.3-12.982 0-6.49-3.71-13.136-14.528-13.136m200.446 29.98v41.882a2.56 2.56 0 0 1-.772 1.854c-.464.464-1.236.618-1.855.618-4.945-.618-7.263-2.163-9.582-4.018-.155 0-10.973 4.48-20.555 4.48-11.59 0-18.39-7.417-18.39-20.244 0-12.52 6.18-18.082 21.17-19.318l15.61-1.236v-3.864c0-4.79-2.937-7.573-7.882-7.573-6.8 0-16.69.774-21.945 1.237-.617 0-1.39-.154-1.853-.618-.464-.464-.773-1.083-.773-1.7l-.31-8.038c0-1.236.773-2.318 2.01-2.473 4.636-.774 16.382-2.474 23.645-2.474 14.527.157 21.482 6.958 21.482 21.485m-28.437 15.92c-5.718.463-8.345 3.09-8.345 8.036 0 3.09.773 8.19 6.49 8.19 6.647 0 15.765-2.473 15.765-2.473v-14.527l-13.91.773zm75.264-36.164c-6.337.31-12.673 4.018-16.537 6.8v-3.863c0-1.39-1.082-2.318-2.473-2.318h-9.582c-1.39 0-2.473 1.082-2.473 2.318V430a2.442 2.442 0 0 0 2.473 2.473h9.582a2.442 2.442 0 0 0 2.473-2.473v-40.49c2.164-1.856 8.963-6.8 16.845-7.574 1.236-.155 2.164-1.082 2.164-2.318v-8.5c0-.618-.31-1.236-.773-1.7-.465-.618-1.083-.927-1.7-.772"/><path fill="#F7A800" d="M442.31 452.873l-7.42 8.81-2.317-2.01 7.728-8.5c-1.235-1.082-2.162-2.164-3.244-3.245l1.7-1.7c2.937 2.78 5.563 4.945 8.654 7.572l-1.546 1.854c-1.082-1.082-2.318-1.854-3.554-2.78m-14.837-21.946l-12.055 6.954c.464.772.928 1.854 1.392 2.627l12.054-7.11c-.62-.927-.927-1.546-1.39-2.472m7.726 11.127l-6.49 5.563 3.4-9.582c-.62-.772-.93-1.39-1.547-2.163l-11.745 8.036c.464.77 1.236 1.544 1.7 2.317l6.954-4.945-3.245 9.736c.618.618 1.082 1.7 2.01 2.317l10.817-9.272c-.617-.618-1.39-1.236-1.854-2.008m15.764 17.308c1.854 1.082 3.71 2.164 5.872 3.09l1.236-2.008c-2.936-1.545-5.563-3.245-8.036-4.79l-7.882 11.59c2.937 2.01 5.72 3.71 8.81 5.41l1.236-2.01-6.337-3.71 2.164-3.09 4.173 2.473 1.236-2.01a138.975 138.975 0 0 1-4.327-2.473l1.854-2.472zm39.254-43.426c-10.973 0-19.936-8.964-19.936-19.937s8.963-19.937 19.936-19.937c10.974 0 19.937 8.964 19.937 19.937s-8.965 19.937-19.937 19.937m.31-6.492c7.263 0 13.29-6.027 13.29-13.29 0-6.028-4.173-11.283-10.046-12.828 0-.618-.31-3.4-.31-3.4h-6.645s-.154 2.937-.154 3.555a13.075 13.075 0 0 0-9.273 12.518c0 7.418 5.874 13.445 13.137 13.445m-29.363-88.71v-.617c0-3.555 2.627-6.646 6.336-6.8 3.863-.31 7.264 2.473 7.572 6.336v.618c0 3.555-2.78 6.646-6.49 6.955-3.555.31-6.955-2.627-7.418-6.49m2.627-.155c.155 2.473 2.32 4.327 4.792 4.018 2.318-.31 4.173-2.164 4.173-4.482.154-.154 0-.31 0-.464-.155-2.473-2.318-4.172-4.79-4.018-2.32.155-4.174 2.01-4.02 4.482v.464h-.154zm29.056 3.4h-2.782l3.4-7.264 3.09-6.49 3.092.308 1.7 6.182 2.318 8.345c-1.082-.154-1.855-.31-2.937-.463l-.772-2.627a37.502 37.502 0 0 0-5.873-.463l-1.236 2.472zm2.318-4.79c1.545 0 2.936.308 4.327.462l-.772-2.936-.927-2.937-1.39 2.938-1.236 2.473zm-13.91-6.183l1.237 11.435 2.937-.31-1.236-11.28 4.483-.31-.154-2.473c-5.102.31-7.11.463-12.21 1.236l.31 2.473 4.635-.77zm.464 154.545l-1.08 8.5-4.02-9.272c-.928-.155-1.546-.464-2.473-.618L470.9 479.92c.927.31 2.01.31 2.936.617l1.7-8.5 4.173 9.428c.927.154 2.008.464 3.09.464l1.546-14.22c-.774-.155-1.7 0-2.628-.155m80.982-29.673l-10.2-5.563-1.236 2.317 12.21 6.8 4.79-8.5-2.164-1.082-3.4 6.027zm-15.455 2.164l13.91 4.636c-.31.464-.62.772-.928 1.236-.31.31-.464.618-.773 1.082l-2.473-.928-3.862 4.79 1.39 2.165c-.617.618-1.235 1.39-1.853 2.01l-5.563-9.12-2.01-3.398 2.163-2.474zm1.546 3.09l1.7 2.628 1.546 2.627 2.01-2.626.463-.618-5.72-2.01zm-14.68 18.7a7.19 7.19 0 0 1 .926 3.555c0 .93-.154 2.01-.618 2.783-.618 1.236-1.545 2.473-2.937 3.245-3.244 1.854-7.57.773-9.426-2.627 0-.153-.154-.463-.31-.617-.463-.928-.618-1.854-.618-2.782.155-2.472 1.236-4.79 3.555-6.026 3.248-2.01 7.575-.927 9.43 2.472m-1.547 3.4c0-.772-.154-1.545-.618-2.318-1.236-2.163-3.863-2.78-6.027-1.7-1.545.773-2.318 2.318-2.318 3.864 0 .772.155 1.545.618 2.163.155.155.31.464.464.618 1.39 1.546 3.71 2.01 5.563.928.464-.31.928-.617 1.236-.927.775-.463 1.083-1.545 1.083-2.627m6.8-16.536l5.873 6.182-9.736-2.937c-.772.618-1.39.772-2.01 1.39l8.5 11.438c.773-.618 1.546-1.236 2.164-1.854l-5.1-6.8 9.89 2.936c.62-.618 1.7-1.236 2.32-2.01l-9.737-10.353c-.927.616-1.546 1.39-2.164 2.007m62.283-52.546c0 1.236 0 2.628-.154 3.71v.31l-.31.153c-4.79 2.782-10.818 4.48-17 4.637-.154.772-.772 6.336-.927 7.108 5.718 1.7 11.28 4.79 15.146 8.81l.155.31v.31c-.31 2.163-1.082 5.1-1.854 6.953l-.154.31h-.31c-5.408 1.545-11.744 1.545-17.463 0-.31.772-2.473 5.873-2.627 6.646 5.1 3.246 9.582 7.73 12.21 12.364l.153.31-.155.31c-.772 1.853-2.318 4.636-3.71 6.336l-.153.31h-.31c-5.41 0-11.59-1.546-16.846-4.482-.463.618-4.018 5.41-4.48 6.027 4.172 4.327 7.417 9.89 8.653 15.3l.154.31-.155.154c-1.237 1.698-3.4 3.862-5.1 5.1l-.155.153-.464-.154c-5.254-1.392-10.817-4.638-15.145-8.81-.618.463-5.1 3.863-5.718 4.48 2.78 5.1 4.48 11.128 4.48 16.537v.773l-.31.154c-1.698 1.236-4.326 2.937-6.335 3.71l-.154.153-.31-.154c-4.79-2.782-9.272-7.264-12.363-12.363-.772.31-6.182 2.627-6.8 2.936.772 2.937 1.236 5.873 1.236 8.81s-.463 6.027-1.235 8.654v.31l-.31.154c-1.854.772-4.79 1.545-6.954 1.854h-.31l-.153-.154c-4.02-3.864-7.264-9.428-8.81-15.146-.772 0-6.336.772-7.108.927-.156 6.027-1.7 12.21-4.638 17l-.154.31h-.31c-1.854.31-5.1.31-7.11 0h-.308l-.154-.31c-2.782-4.79-4.482-10.818-4.637-17-.773-.154-6.647-.927-7.573-.927-1.546 5.718-4.79 11.28-8.655 15.146l-.154.154h-.31c-2.163-.31-5.1-1.236-6.954-2.01l-.154-.154-.154-.31c-.773-2.627-1.237-5.718-1.237-8.81 0-2.935.463-5.87 1.236-8.808-.773-.31-5.873-2.318-6.49-2.782-3.092 5.255-7.73 9.736-12.52 12.52l-.31.153-.31-.154c-2.008-.928-4.636-2.318-6.335-3.71l-.154-.153v-.62c0-5.407 1.7-11.435 4.482-16.69-.618-.463-5.41-4.018-6.027-4.636-4.326 4.173-9.89 7.264-15.145 8.655l-.31.153-.31-.154c-1.7-1.393-3.708-3.4-5.1-5.102l-.154-.31.155-.31c1.392-5.408 4.637-10.817 8.81-15.145-.464-.618-4.02-5.254-4.637-6.027-5.254 2.937-11.436 4.637-16.845 4.482h-.31l-.154-.155c-1.237-1.7-2.783-4.327-3.71-6.336l-.155-.31.155-.31c2.78-4.79 7.264-9.27 12.363-12.362-.31-.773-2.473-6.027-2.937-6.646-5.872 1.39-12.21 1.544-17.463 0l-.31-.156-.154-.31c-.773-1.853-1.547-4.79-1.855-6.954v-.31l.154-.31c3.862-4.017 9.427-7.107 15.145-8.808 0-.772-.928-6.646-1.082-7.572-6.027-.155-12.21-1.7-17-4.482l-.31-.154v-.31c-.154-.927-.154-2.317-.154-3.554 0-1.236 0-2.473.154-3.555v-.31l.31-.153c4.79-2.782 10.972-4.482 17-4.482.153-.773.927-6.49.927-7.264-5.718-1.7-11.28-4.79-15.145-8.81l-.155-.153v-.31c.31-2.164 1.082-5.1 1.854-6.954l.155-.31.308-.155c5.255-1.545 11.59-1.545 17.464 0 .31-.772 2.473-5.873 2.782-6.646-5.255-3.092-9.736-7.574-12.364-12.364l-.154-.31.154-.31c.928-1.853 2.318-4.48 3.555-6.18l.154-.31h.31c5.562-.154 11.59 1.545 16.845 4.482.463-.618 4.018-5.41 4.636-6.027-4.172-4.326-7.417-9.89-8.653-15.3v-.308l.154-.31c1.393-1.7 3.556-3.863 5.256-5.1l.31-.154h.31c5.408 1.39 10.972 4.636 15.145 8.81.62-.464 4.946-3.864 5.564-4.328-2.937-5.1-4.637-11.127-4.637-16.536v-.773l.31-.154c1.545-1.236 4.327-2.782 6.182-3.554l.153-.155.31.155c4.79 2.627 9.272 7.264 12.363 12.364.773-.31 6.337-2.627 7.11-2.937-.773-2.938-1.237-5.874-1.083-8.81 0-3.09.31-6.027 1.236-8.655v-.31h.31c1.853-.77 4.79-1.544 6.953-1.853h.31l.31.155c4.018 3.863 7.108 9.427 8.81 15.146.77-.155 6.645-.773 7.417-.928.154-6.027 1.7-12.21 4.637-16.845l.154-.31.31-.153c2.164-.31 5.255-.31 7.264 0l.31.154.154.31c2.937 4.79 4.482 10.818 4.482 16.845.927.155 6.645.928 7.418 1.082 1.7-5.873 4.79-11.282 8.81-15.146l.154-.153.31.154c2.163.31 5.1 1.083 6.954 1.855l.31.155.153.31a30.812 30.812 0 0 1 1.235 8.653c0 2.937-.463 6.027-1.236 8.81.772.308 6.336 2.626 7.108 2.936 3.09-5.1 7.572-9.583 12.363-12.365l.31-.154.31.155c1.854.773 4.637 2.318 6.183 3.71l.31.154v.772c0 5.41-1.7 11.436-4.482 16.536.62.464 5.255 4.018 5.873 4.636 4.328-4.172 9.892-7.418 15.3-8.81l.31-.153.31.31c1.7 1.236 3.863 3.554 5.1 5.1l.154.31-.154.308c-1.39 5.41-4.637 10.973-8.81 15.146.464.618 3.864 5.254 4.482 5.873 5.41-2.937 11.437-4.482 17-4.482h.31l.154.31c1.39 1.7 2.936 4.326 3.554 6.18l.154.31-.154.31c-2.782 4.79-7.264 9.272-12.364 12.363.31.773 2.473 6.027 2.782 6.646 5.718-1.39 12.21-1.545 17.464 0h.31l.153.31c.772 1.853 1.545 4.79 1.853 6.954v.31l-.154.154c-3.864 4.018-9.428 7.11-15.147 8.81.154.77.772 6.49.928 7.262 6.183.155 12.21 1.7 17 4.637l.31.155v.31c-.93.772-.774 2.01-.774 3.4m-167.218-64.91l9.118 10.2c1.236 1.392 2.627 1.237 4.48-.308 11.592-9.118 26.428-14.373 42.19-14.373s30.602 5.41 42.347 14.373c1.854 1.39 3.245 1.545 4.48.31l9.12-10.2c1.08-1.083 1.08-2.628-.928-4.33-15.3-11.9-34.31-19.317-55.02-19.317s-39.87 7.418-54.862 19.318c-2.007 1.7-2.007 3.246-.925 4.328m.618 42.81c-1.082-.62-2.01-1.392-2.937-1.083-.774.155-1.237.927-1.547 2.164-4.327 14.682-4.327 27.2 0 41.727.31.928.618 1.854 1.546 2.164.77.31 1.7 0 3.09-.928l28.28-19.317c1.083-.773 1.7-1.7 1.7-2.782s-.617-2.008-1.7-2.78l-28.434-19.165zm6.182-16.847c.154 1.08 1.236 1.544 2.318 2.008l30.908 14.99c1.236.62 2.318.62 3.246.156.927-.618 1.39-1.545 1.545-2.937l2.473-34.155c.155-1.7-.154-2.627-.618-3.09-.618-.62-1.545-.464-2.473-.31-14.836 3.555-25.5 9.736-36.163 20.864-1.082.928-1.392 1.855-1.236 2.473m.462 78.2c0 .617.464 1.39 1.082 2.162 10.664 11.128 21.327 17.31 36.164 20.864.927.31 1.854.464 2.473-.154.617-.464.926-1.546.77-3.09l-2.472-34.31c-.154-1.237-.618-2.32-1.545-2.783-.928-.464-2.01-.464-3.246 0l-30.754 14.99c-1.082.464-2.164 1.082-2.474 2.01v.31m48.528-17.31c12.21 0 22.1-9.89 22.1-22.1s-9.89-22.1-22.1-22.1-22.1 9.89-22.1 22.1 9.89 22.1 22.1 22.1m9.428 39.718c.464.464 1.39.464 2.627.154 14.682-3.555 25.5-9.736 36.01-20.863.618-.774 1.39-1.547 1.08-2.32-.153-.77-.926-1.545-2.317-2.163l-30.908-14.99c-1.236-.618-2.318-.618-3.246 0-.927.618-1.39 1.545-1.545 2.936l-2.473 34.155c.153 1.08 0 2.318.772 3.09m46.054-39.873c.927.618 2.01 1.39 2.937.928.618-.155 1.236-.928 1.545-2.164 4.327-14.683 4.327-27.2 0-41.728-.31-.927-.618-1.854-1.39-2.164s-1.7 0-3.092.927l-28.282 19.318c-1.082.773-1.7 1.7-1.7 2.782 0 1.083.618 2.01 1.7 2.782l28.282 19.318zm-6.337-61.354c0-.617-.31-1.39-1.08-2.163-10.51-11.127-21.33-17.31-36.165-20.864-.772-.154-1.854-.463-2.473.155-.618.463-.928 1.545-.772 3.09l2.473 34.31c.154 1.236.618 2.318 1.545 2.782.93.464 2.165.464 3.247-.154l30.908-14.836c.928-.464 2.164-.927 2.318-2.01 0 0 .156-.154 0-.31m-131.827 61.2l13.137-3.862c1.236-.31 2.318-1.7 2.163-3.246-4.79-24.418 1.236-44.354 15.61-60.272 1.39-1.082 1.545-3.09.153-4.637l-9.582-9.582c-.928-1.08-2.628-1.08-4.02.464-18.235 19.318-27.508 48.836-20.708 79.128.465 1.39 1.546 2.473 3.246 2.01M570.89 424.9l-13.135-4.482c-.618-.31-2.473-.31-3.4 2.01-10.664 25.5-35.39 42.963-64.137 42.963-28.745 0-53.936-17.926-64.136-43.426-.773-1.854-2.628-1.854-3.246-1.7l-13.136 4.48c-1.392.465-2.318 1.7-1.546 3.556 12.827 32.764 44.818 55.945 82.063 55.945 37.246 0 69.392-23.336 82.22-56.1.772-1.545 0-2.782-1.546-3.245m-15.145-88.246c-1.236-1.545-3.4-1.39-4.018-.31l-9.582 9.583c-1.39 1.39-1.236 3.555.154 4.636 14.372 15.918 20.4 35.7 15.608 60.272-.154 1.546.927 2.937 2.163 3.246l13.138 3.864c1.7.464 2.937-.618 3.245-2.01 6.956-30.443-2.316-60.116-20.708-79.28m-30.754-3.71l3.092-5.872 8.19-3.71c-.927-.617-1.854-1.08-2.627-1.544l-5.563 2.627-1.082-6.18c-1.236-.62-1.854-.774-3.09-1.237l1.7 8.963-3.092 5.72 2.473 1.235zm-15.3 132.447c-4.018.93-7.264 1.7-11.28 2.32l.308 2.317c1.546-.31 2.937-.464 4.482-.618l2.01 11.28 2.936-.618-2.473-11.28c1.545-.31 2.937-.773 4.48-1.083l-.463-2.32zm-40.026 2.01v.772c-.155 1.854-1.546 3.71-3.555 4.02l.462 6.49a13.831 13.831 0 0 1-3.09-.928l-.155-6.183-2.78-1.235-2.165 5.41c-.928-.31-1.854-.62-2.627-1.082l2.78-6.646.31-.773 2.32-5.41 6.335 2.474c1.39.62 2.01 1.856 2.164 3.092m-2.628 0c-.154-.464-.31-.773-.772-.928l-3.555-1.236-.773 2.164-.31.772 3.246 1.236c.927.464 1.7-.464 2.01-1.236.153-.153.307-.463.153-.772m42.654-140.79c-1.08-.31-2.01-.464-3.245-.773l2.318-7.728 1.7-5.564c2.473.618 4.636 1.39 6.954 2.164 1.236.464 2.01 1.854 2.164 3.4.155 2.164-.927 4.482-3.09 4.946l.772 6.182c-.928-.464-1.7-.772-2.782-1.236l-.772-5.41-2.627-.77-1.39 4.787zm1.856-7.42l3.09 1.083c.928.31 2.01-1.082 2.01-2.318 0-.618-.154-1.082-.928-1.236-1.236-.465-2.01-.62-3.245-.928l-.618 2.164-.31 1.235zM496.4 474.047l3.09 7.418c-.927 0-1.853.154-2.78.31l-.928-2.32-6.027.156-.618 2.473c-.928-.154-1.854-.154-2.782-.154l2.627-7.73 1.855-5.872.154-.154 3.092-.154.154.31 2.164 5.716zm-1.854 2.627l-1.082-2.627-1.082-2.937-.928 2.936-.927 2.78 4.02-.153zm18.545-12.52l4.638 13.292 2.78-.927-4.48-13.137c-1.237.31-1.855.466-2.937.774M445.71 324.6l-.773-1.39c2.01-1.237 4.173-2.474 6.336-3.556 2.473-1.39 6.027 2.01 5.72 4.946 0 .463-.156 1.082-.465 1.545l5.1 3.71c-.927.463-1.7.772-2.78 1.39L454.362 328l-2.473 1.39 2.628 4.328c-1.082.618-1.7 1.082-2.782 1.7L445.71 324.6zm3.09-.773l.31.618 1.39 2.473 2.938-1.545c.31-.154.464-.463.464-.927 0-1.39-.928-3.09-2.318-2.318-.93.618-1.548 1.08-2.784 1.7"/></svg>