<svg xmlns="http://www.w3.org/2000/svg" width="223.171" height="223.321" viewBox="379.249 284.495 223.171 223.321"><path fill="#FFF" d="M442.31 452.873l-7.42 8.81-2.316-2.01 7.728-8.5c-1.235-1.082-2.163-2.164-3.245-3.245l1.7-1.7c2.938 2.78 5.563 4.945 8.654 7.572l-1.545 1.854c-1.083-1.082-2.32-1.854-3.555-2.78m-14.837-21.947l-12.055 6.954c.464.773.928 1.855 1.392 2.628l12.055-7.107c-.62-.928-.927-1.547-1.392-2.473m7.727 11.127l-6.49 5.563 3.4-9.582c-.62-.772-.93-1.392-1.547-2.163l-11.745 8.036c.464.77 1.235 1.545 1.7 2.317l6.953-4.944-3.244 9.736c.618.618 1.082 1.7 2.01 2.317l10.817-9.272c-.615-.615-1.39-1.233-1.853-2.006m15.764 17.31c1.854 1.08 3.71 2.163 5.872 3.09l1.236-2.01c-2.937-1.544-5.563-3.244-8.036-4.79l-7.882 11.59c2.937 2.01 5.72 3.71 8.81 5.41l1.236-2.01-6.337-3.71 2.164-3.09 4.173 2.474 1.235-2.01a140.258 140.258 0 0 1-4.326-2.474l1.854-2.47zm39.254-43.427c-10.973 0-19.936-8.965-19.936-19.938s8.963-19.938 19.936-19.938c10.975 0 19.938 8.964 19.938 19.937s-8.966 19.937-19.938 19.937m.31-6.492c7.263 0 13.29-6.027 13.29-13.29 0-6.028-4.174-11.283-10.046-12.828 0-.618-.31-3.4-.31-3.4h-6.646s-.154 2.938-.154 3.556a13.075 13.075 0 0 0-9.273 12.518c0 7.418 5.874 13.445 13.137 13.445m-29.363-88.71v-.617c0-3.555 2.627-6.646 6.336-6.8 3.863-.31 7.264 2.473 7.572 6.336v.618c0 3.555-2.78 6.646-6.49 6.955-3.555.31-6.955-2.627-7.418-6.49m2.627-.155c.155 2.474 2.32 4.327 4.792 4.02 2.318-.31 4.173-2.165 4.173-4.483.154-.155 0-.31 0-.465-.155-2.473-2.318-4.172-4.79-4.018-2.318.154-4.174 2.01-4.02 4.48v.465h-.154zm29.056 3.4h-2.78l3.398-7.265 3.09-6.49 3.093.31 1.7 6.18 2.317 8.347c-1.082-.154-1.855-.31-2.938-.463l-.77-2.626a37.516 37.516 0 0 0-5.874-.464l-1.236 2.472zm2.318-4.79c1.545 0 2.936.308 4.327.462l-.772-2.937-.927-2.937-1.39 2.937-1.236 2.474zm-13.91-6.183l1.237 11.436 2.937-.31-1.235-11.28 4.48-.31-.153-2.474c-5.102.31-7.11.463-12.21 1.236l.31 2.473 4.635-.77zm.464 154.544l-1.08 8.5-4.02-9.27c-.928-.156-1.546-.465-2.474-.62L470.9 479.92c.927.31 2.01.31 2.936.617l1.7-8.5 4.173 9.428c.927.154 2.008.464 3.09.464l1.546-14.22c-.774-.156-1.7 0-2.628-.156m80.982-29.672l-10.2-5.562-1.236 2.317 12.21 6.8 4.79-8.5-2.164-1.08-3.4 6.025zm-15.455 2.164l13.91 4.636c-.31.464-.62.772-.93 1.236-.31.31-.463.618-.77 1.082l-2.475-.928-3.862 4.79 1.39 2.165c-.617.617-1.234 1.39-1.853 2.01l-5.563-9.12-2.01-3.398 2.163-2.474zm1.546 3.09l1.7 2.627 1.546 2.627 2.01-2.627.463-.617-5.72-2.01zm-14.68 18.7a7.201 7.201 0 0 1 .926 3.555c0 .93-.154 2.012-.618 2.783-.618 1.236-1.545 2.474-2.937 3.245-3.244 1.854-7.57.773-9.427-2.627 0-.153-.153-.463-.31-.617-.463-.928-.618-1.854-.618-2.782.155-2.472 1.236-4.79 3.555-6.025 3.248-2.012 7.575-.928 9.43 2.47m-1.548 3.4c0-.77-.153-1.544-.617-2.317-1.236-2.163-3.863-2.78-6.027-1.7-1.545.773-2.318 2.318-2.318 3.864 0 .77.155 1.545.618 2.163.155.155.31.464.464.618 1.392 1.546 3.71 2.01 5.563.928.464-.31.928-.617 1.236-.927.775-.463 1.082-1.545 1.082-2.627m6.8-16.536l5.874 6.182-9.736-2.937c-.772.618-1.39.77-2.01 1.39l8.5 11.44c.772-.62 1.546-1.237 2.164-1.855l-5.1-6.8 9.89 2.937c.618-.617 1.7-1.235 2.318-2.01l-9.735-10.353c-.927.614-1.546 1.388-2.164 2.006m62.283-52.546c0 1.235 0 2.628-.154 3.71v.31l-.31.153c-4.792 2.782-10.818 4.48-17 4.637-.154.772-.772 6.336-.928 7.108 5.718 1.7 11.28 4.79 15.146 8.81l.153.31v.31c-.31 2.164-1.082 5.1-1.854 6.954l-.156.31h-.31c-5.408 1.545-11.744 1.545-17.463 0-.31.772-2.473 5.873-2.627 6.646 5.1 3.245 9.582 7.728 12.21 12.363l.153.31-.154.31c-.77 1.853-2.317 4.637-3.71 6.337l-.152.31h-.31c-5.41 0-11.592-1.546-16.847-4.482-.463.618-4.018 5.41-4.48 6.027 4.173 4.327 7.418 9.89 8.653 15.3l.155.31-.154.154c-1.236 1.7-3.398 3.864-5.1 5.102l-.154.153-.464-.153c-5.255-1.392-10.818-4.638-15.146-8.81-.617.463-5.1 3.863-5.718 4.48 2.78 5.1 4.48 11.128 4.48 16.537v.77l-.31.155c-1.698 1.236-4.327 2.938-6.336 3.71l-.153.153-.31-.154c-4.792-2.782-9.272-7.264-12.364-12.363-.77.31-6.18 2.628-6.8 2.938.773 2.937 1.237 5.873 1.237 8.81 0 2.938-.464 6.027-1.236 8.654v.31l-.31.154c-1.853.772-4.79 1.545-6.953 1.854h-.31l-.154-.154c-4.02-3.864-7.265-9.428-8.81-15.146-.772 0-6.337.772-7.108.928-.155 6.026-1.7 12.21-4.638 17l-.153.31h-.31c-1.855.31-5.1.31-7.11 0h-.31l-.152-.31c-2.782-4.79-4.482-10.818-4.638-17-.77-.154-6.646-.928-7.57-.928-1.547 5.72-4.792 11.28-8.656 15.146l-.154.154h-.31c-2.163-.31-5.1-1.236-6.954-2.01l-.154-.154-.153-.31c-.773-2.628-1.237-5.72-1.237-8.81 0-2.937.464-5.872 1.237-8.81-.773-.31-5.873-2.317-6.49-2.78-3.092 5.254-7.73 9.734-12.52 12.518l-.31.154-.31-.154c-2.01-.928-4.638-2.318-6.337-3.71l-.154-.153v-.618c0-5.407 1.7-11.436 4.48-16.69-.617-.463-5.408-4.02-6.025-4.636-4.327 4.173-9.892 7.264-15.146 8.654l-.31.154-.31-.154c-1.7-1.392-3.708-3.4-5.1-5.1l-.154-.31.154-.31c1.392-5.41 4.637-10.82 8.81-15.147-.464-.618-4.02-5.255-4.637-6.027-5.254 2.937-11.437 4.637-16.845 4.48h-.31l-.154-.153c-1.236-1.7-2.782-4.327-3.71-6.336l-.154-.31.154-.31c2.78-4.79 7.265-9.272 12.363-12.363-.31-.772-2.473-6.027-2.937-6.646-5.872 1.39-12.21 1.545-17.463 0l-.31-.155-.155-.31c-.77-1.854-1.546-4.79-1.854-6.954v-.31l.154-.31c3.862-4.02 9.428-7.11 15.146-8.81 0-.772-.928-6.647-1.082-7.572-6.026-.155-12.21-1.7-17-4.482l-.31-.154v-.31c-.154-.927-.154-2.317-.154-3.554s0-2.473.155-3.555v-.31l.31-.154c4.79-2.782 10.973-4.482 17-4.482.153-.773.927-6.49.927-7.264-5.72-1.7-11.28-4.79-15.146-8.81l-.155-.154v-.31c.31-2.164 1.082-5.1 1.854-6.954l.154-.31.31-.154c5.256-1.545 11.592-1.545 17.465 0 .31-.772 2.473-5.873 2.782-6.646-5.255-3.092-9.736-7.573-12.364-12.363l-.154-.31.153-.31c.928-1.854 2.318-4.48 3.555-6.182l.154-.31h.31c5.563-.153 11.592 1.546 16.847 4.483.462-.618 4.017-5.41 4.635-6.027-4.173-4.327-7.418-9.89-8.654-15.3v-.31l.155-.31c1.392-1.7 3.555-3.863 5.255-5.1l.31-.154h.31c5.41 1.39 10.973 4.636 15.146 8.81.618-.464 4.945-3.863 5.563-4.327-2.938-5.1-4.638-11.128-4.638-16.536v-.774l.31-.155c1.545-1.234 4.327-2.78 6.183-3.553l.153-.155.31.155c4.792 2.627 9.272 7.264 12.363 12.364.774-.31 6.338-2.626 7.11-2.937-.772-2.937-1.236-5.873-1.082-8.81 0-3.09.31-6.026 1.236-8.654v-.31h.31c1.854-.772 4.79-1.545 6.954-1.854h.31l.31.155c4.02 3.864 7.108 9.428 8.81 15.147.772-.155 6.646-.773 7.418-.93.154-6.025 1.7-12.208 4.638-16.844l.153-.31.31-.153c2.164-.31 5.255-.31 7.264 0l.31.154.155.31c2.938 4.79 4.482 10.817 4.482 16.844.927.155 6.645.93 7.418 1.082 1.7-5.873 4.79-11.282 8.81-15.146l.154-.154.308.154c2.164.31 5.1 1.082 6.955 1.854l.31.155.153.31a30.775 30.775 0 0 1 1.236 8.653c0 2.938-.463 6.027-1.236 8.81.773.31 6.337 2.626 7.11 2.937 3.09-5.1 7.57-9.582 12.362-12.364l.31-.155.31.154c1.854.772 4.637 2.317 6.183 3.708l.31.155v.772c0 5.41-1.7 11.437-4.48 16.536.618.465 5.254 4.02 5.872 4.638 4.328-4.173 9.892-7.418 15.3-8.81l.31-.153.31.31c1.7 1.235 3.864 3.553 5.1 5.1l.155.31-.154.308c-1.39 5.41-4.637 10.973-8.81 15.146.464.616 3.864 5.253 4.48 5.872 5.41-2.938 11.44-4.482 17-4.482h.31l.156.31c1.39 1.7 2.936 4.326 3.554 6.182l.154.31-.154.31c-2.782 4.79-7.264 9.27-12.364 12.362.31.773 2.474 6.027 2.782 6.646 5.718-1.392 12.21-1.545 17.464 0h.31l.153.31c.772 1.853 1.545 4.79 1.853 6.954v.31l-.154.154c-3.864 4.02-9.428 7.11-15.147 8.81.153.77.77 6.49.928 7.263 6.183.156 12.21 1.7 17 4.638l.31.154v.31c-.93.775-.774 2.012-.774 3.402M434.433 331.25l9.118 10.2c1.236 1.39 2.627 1.236 4.48-.31 11.592-9.117 26.428-14.372 42.19-14.372 15.764 0 30.602 5.408 42.346 14.373 1.854 1.39 3.245 1.545 4.48.31l9.12-10.2c1.08-1.083 1.08-2.628-.928-4.33-15.3-11.898-34.31-19.316-55.02-19.316s-39.872 7.42-54.862 19.318c-2.006 1.7-2.006 3.246-.924 4.328m.618 42.81c-1.082-.62-2.01-1.393-2.937-1.083-.774.154-1.237.927-1.548 2.164-4.326 14.682-4.326 27.2 0 41.727.31.928.618 1.854 1.547 2.164.77.31 1.698 0 3.09-.93l28.28-19.315c1.082-.773 1.7-1.7 1.7-2.782s-.618-2.008-1.7-2.78l-28.434-19.165zm6.182-16.847c.154 1.08 1.236 1.544 2.318 2.008l30.908 14.99c1.236.62 2.317.62 3.246.156.927-.618 1.39-1.545 1.545-2.938l2.473-34.154c.155-1.7-.153-2.627-.618-3.09-.617-.62-1.545-.465-2.473-.31-14.836 3.554-25.5 9.735-36.163 20.863-1.082.93-1.392 1.856-1.236 2.474m.462 78.2c0 .617.464 1.39 1.082 2.162 10.663 11.128 21.326 17.31 36.163 20.863.928.31 1.854.465 2.474-.153.617-.464.926-1.546.77-3.09l-2.473-34.312c-.154-1.236-.618-2.317-1.545-2.782-.928-.463-2.01-.463-3.246 0l-30.754 14.99c-1.082.465-2.164 1.083-2.474 2.01.002 0 .002.157.002.31m48.528-17.31c12.21 0 22.102-9.89 22.102-22.1s-9.892-22.1-22.102-22.1-22.1 9.892-22.1 22.1 9.89 22.1 22.1 22.1m9.428 39.72c.464.464 1.39.464 2.627.153 14.682-3.554 25.5-9.734 36.01-20.86.618-.774 1.39-1.548 1.08-2.32-.153-.77-.926-1.545-2.317-2.163l-30.908-14.99c-1.235-.618-2.317-.618-3.246 0-.927.618-1.39 1.545-1.545 2.937l-2.473 34.154c.153 1.08 0 2.318.772 3.09m46.054-39.873c.927.618 2.01 1.39 2.937.928.618-.155 1.236-.928 1.545-2.164 4.327-14.683 4.327-27.2 0-41.728-.31-.927-.617-1.854-1.39-2.164-.774-.31-1.7 0-3.092.927l-28.282 19.318c-1.082.772-1.7 1.7-1.7 2.782s.618 2.01 1.7 2.78l28.282 19.32zm-6.337-61.354c0-.616-.31-1.39-1.08-2.163-10.512-11.127-21.33-17.31-36.165-20.863-.772-.154-1.854-.463-2.474.154-.617.464-.928 1.546-.77 3.092l2.472 34.31c.154 1.235.618 2.317 1.545 2.78.93.465 2.165.465 3.247-.153l30.908-14.836c.928-.463 2.164-.926 2.318-2.008 0-.002.156-.156 0-.31m-131.827 61.2l13.137-3.864c1.236-.31 2.318-1.7 2.163-3.246-4.79-24.417 1.236-44.354 15.61-60.27 1.39-1.083 1.545-3.092.152-4.638l-9.58-9.582c-.93-1.082-2.63-1.082-4.02.463-18.236 19.318-27.51 48.836-20.71 79.128.467 1.39 1.548 2.472 3.248 2.008m163.355 7.11l-13.135-4.482c-.618-.31-2.473-.31-3.4 2.01-10.663 25.5-35.39 42.963-64.137 42.963-28.745 0-53.936-17.926-64.136-43.426-.773-1.854-2.628-1.854-3.246-1.7l-13.136 4.48c-1.393.465-2.318 1.7-1.546 3.556 12.827 32.765 44.817 55.945 82.062 55.945 37.246 0 69.393-23.336 82.22-56.1.773-1.546.002-2.782-1.545-3.245m-15.145-88.246c-1.236-1.545-3.4-1.39-4.02-.31l-9.58 9.582c-1.392 1.392-1.236 3.556.153 4.637 14.373 15.918 20.4 35.7 15.61 60.27-.155 1.547.926 2.94 2.162 3.247l13.137 3.863c1.7.464 2.938-.618 3.245-2.01 6.957-30.442-2.315-60.115-20.707-79.28m-30.754-3.708l3.092-5.873 8.19-3.71c-.928-.617-1.854-1.08-2.628-1.544l-5.562 2.627-1.082-6.18c-1.236-.62-1.854-.774-3.09-1.237l1.7 8.963-3.093 5.72 2.474 1.235zm-15.3 132.445c-4.02.93-7.265 1.7-11.28 2.318l.308 2.318c1.546-.31 2.938-.465 4.482-.618l2.01 11.282 2.937-.62-2.474-11.28c1.545-.31 2.938-.772 4.48-1.082l-.463-2.318zm-40.026 2.01v.77c-.155 1.855-1.546 3.71-3.555 4.02l.462 6.49a13.706 13.706 0 0 1-3.09-.927l-.155-6.183-2.78-1.236-2.165 5.41c-.928-.31-1.854-.62-2.627-1.082l2.78-6.646.31-.772 2.32-5.41 6.335 2.474c1.39.62 2.01 1.856 2.164 3.092m-2.628 0c-.154-.465-.31-.773-.772-.93l-3.555-1.234-.772 2.164-.31.77 3.245 1.237c.927.464 1.7-.464 2.01-1.236.153-.152.307-.46.153-.77m42.654-140.79c-1.08-.31-2.01-.464-3.245-.773l2.317-7.728 1.7-5.564c2.473.618 4.636 1.392 6.954 2.164 1.236.464 2.01 1.854 2.164 3.4.154 2.164-.928 4.48-3.09 4.946l.77 6.182c-.928-.464-1.7-.772-2.78-1.236l-.773-5.408-2.627-.772-1.39 4.787zm1.856-7.42l3.09 1.083c.93.31 2.01-1.082 2.01-2.318 0-.618-.153-1.082-.928-1.235-1.235-.465-2.01-.618-3.245-.928l-.618 2.164-.31 1.235zM496.4 474.047l3.09 7.418c-.928 0-1.853.154-2.78.31l-.928-2.318-6.027.155-.618 2.474c-.928-.154-1.854-.154-2.782-.154l2.628-7.728 1.854-5.873.154-.155 3.092-.154.154.31 2.164 5.716zm-1.854 2.627l-1.082-2.627-1.082-2.937-.928 2.936-.927 2.78 4.02-.153zm18.545-12.52l4.64 13.292 2.78-.928-4.48-13.137c-1.24.31-1.857.465-2.94.774M445.71 324.6l-.772-1.392c2.01-1.235 4.173-2.473 6.336-3.555 2.473-1.39 6.026 2.01 5.72 4.946 0 .462-.156 1.08-.465 1.544l5.1 3.71c-.928.463-1.7.77-2.782 1.39L454.363 328l-2.474 1.392 2.627 4.326c-1.082.618-1.7 1.082-2.78 1.7l-6.028-10.818zm3.09-.773l.31.618 1.392 2.473 2.937-1.545c.31-.154.464-.463.464-.927 0-1.39-.93-3.09-2.318-2.318-.932.618-1.55 1.08-2.786 1.7"/></svg>